name C:\Users\u0101727\Documents\MyRepositories\upper-imu-dc\Results\main_tracking\Case_40\FLX01_orientations_groundFrame.mot
datacolumns 13
datarows 32
range 0.51000000 0.82000000
endheader 
time	radius_imu_[0][0]	radius_imu_[0][1]	radius_imu_[0][2]	radius_imu_[1][0]	radius_imu_[1][1]	radius_imu_[1][2]	radius_imu_[2][0]	radius_imu_[2][1]	radius_imu_[2][2]	radius_imu_x	radius_imu_y	radius_imu_z	
          0.51000000	          0.68025559	         -0.02678723	          0.73248534	         -0.13719911	          0.97701576	          0.16314594	         -0.72001996	         -0.21147728	          0.66094525	         -0.24199980	          0.82196553	          0.03935785	
          0.52000000	          0.68361121	         -0.02961655	          0.72924521	         -0.13529188	          0.97671709	          0.16649275	         -0.71719720	         -0.21247726	          0.66368787	         -0.24578793	          0.81721822	          0.04329661	
          0.53000000	          0.68616494	         -0.03255138	          0.72671734	         -0.13384652	          0.97629317	          0.17010806	         -0.71502643	         -0.21399077	          0.66554125	         -0.25023622	          0.81353109	          0.04740404	
          0.54000000	          0.68819159	         -0.03566775	          0.72465174	         -0.13254639	          0.97580113	          0.17390691	         -0.71331885	         -0.21573124	          0.66681050	         -0.25512109	          0.81052888	          0.05178189	
          0.55000000	          0.69046389	         -0.03874866	          0.72232829	         -0.13123967	          0.97528178	          0.17776837	         -0.71136191	         -0.21754077	          0.66831149	         -0.25997640	          0.80716319	          0.05606095	
          0.56000000	          0.68981600	         -0.04258273	          0.72273134	         -0.13000171	          0.97475772	          0.18151295	         -0.71221727	         -0.21916685	          0.66686764	         -0.26574946	          0.80774620	          0.06165233	
          0.57000000	          0.69125327	         -0.04560978	          0.72117173	         -0.12883615	          0.97423665	          0.18510588	         -0.71103458	         -0.22086804	          0.66756808	         -0.27048830	          0.80549224	          0.06588579	
          0.58000000	          0.69441293	         -0.04805131	          0.71797058	         -0.12765515	          0.97371524	          0.18863402	         -0.70816301	         -0.22264255	          0.67002645	         -0.27442895	          0.80088240	          0.06908690	
          0.59000000	          0.69107741	         -0.05201770	          0.72090649	         -0.12690328	          0.97318048	          0.19187314	         -0.71155293	         -0.22408459	          0.66594183	         -0.28052514	          0.80510944	          0.07512876	
          0.60000000	          0.69245655	         -0.05438526	          0.71940682	         -0.12629817	          0.97261864	          0.19509422	         -0.71031873	         -0.22595403	          0.66662738	         -0.28470800	          0.80294794	          0.07837870	
          0.61000000	          0.68729143	         -0.05868015	          0.72400769	         -0.12592932	          0.97201309	          0.19832388	         -0.71538262	         -0.22748010	          0.66066672	         -0.29162879	          0.80959473	          0.08517229	
          0.62000000	          0.68167011	         -0.06272802	          0.72896574	         -0.12604012	          0.97135596	          0.20144846	         -0.72072169	         -0.22920032	          0.65423808	         -0.29870059	          0.81680988	          0.09176266	
          0.63000000	          0.67418154	         -0.06693393	          0.73552641	         -0.12671830	          0.97063429	          0.20447873	         -0.72761371	         -0.23106044	          0.64590197	         -0.30659626	          0.82644334	          0.09895747	
          0.64000000	          0.66515639	         -0.07167748	          0.74325589	         -0.12760999	          0.96982710	          0.20772840	         -0.73571915	         -0.23301875	          0.63593993	         -0.31572159	          0.83792403	          0.10734610	
          0.65000000	          0.65780391	         -0.07630188	          0.74931438	         -0.12847251	          0.96890945	          0.21144574	         -0.74215149	         -0.23535613	          0.62754973	         -0.32499179	          0.84702613	          0.11547880	
          0.66000000	          0.65268091	         -0.08103090	          0.75328721	         -0.12901089	          0.96785666	          0.21589274	         -0.74656802	         -0.23809133	          0.62124770	         -0.33445908	          0.85304597	          0.12351883	
          0.67000000	          0.64615366	         -0.08694738	          0.75823849	         -0.12932852	          0.96664788	          0.22105657	         -0.75216992	         -0.24089837	          0.61335829	         -0.34591288	          0.86060705	          0.13375802	
          0.68000000	          0.64001473	         -0.09346286	          0.76265709	         -0.12944484	          0.96527220	          0.22692204	         -0.75738047	         -0.24395548	          0.60569014	         -0.35846412	          0.86741127	          0.14500737	
          0.69000000	          0.63486904	         -0.10043031	          0.76606465	         -0.12929131	          0.96372459	          0.23349232	         -0.76172505	         -0.24728255	          0.59885414	         -0.37176796	          0.87269607	          0.15689053	
          0.70000000	          0.63104579	         -0.10779962	          0.76821901	         -0.12876597	          0.96200372	          0.24076580	         -0.76498401	         -0.25085471	          0.59318748	         -0.38556919	          0.87605451	          0.16919376	
          0.71000000	          0.62878018	         -0.11553790	          0.76895155	         -0.12775679	          0.96011061	          0.24872841	         -0.76701609	         -0.25463427	          0.58893777	         -0.39961031	          0.87719955	          0.18172215	
          0.72000000	          0.62821490	         -0.12361584	          0.76815699	         -0.12616080	          0.95804696	          0.25735088	         -0.76774311	         -0.25858296	          0.58626391	         -0.41364162	          0.87595763	          0.19429092	
          0.73000000	          0.62935606	         -0.13201206	          0.76582228	         -0.12390435	          0.95581311	          0.26658772	         -0.76717577	         -0.26266731	          0.58518990	         -0.42746603	          0.87231907	          0.20675979	
          0.74000000	          0.63204578	         -0.14071832	          0.76204756	         -0.12095958	          0.95340631	          0.27637871	         -0.76543250	         -0.26686096	          0.58557520	         -0.44097991	          0.86646941	          0.21906649	
          0.75000000	          0.63596650	         -0.14974240	          0.75704942	         -0.11735282	          0.95081983	          0.28665303	         -0.76274172	         -0.27114361	          0.58711686	         -0.45419417	          0.85878520	          0.23124446	
          0.76000000	          0.64067604	         -0.15910734	          0.75114517	         -0.11316400	          0.94804301	          0.29733543	         -0.75942618	         -0.27549828	          0.58938322	         -0.46722975	          0.84979512	          0.24341843	
          0.77000000	          0.64566584	         -0.16884565	          0.74471926	         -0.10851870	          0.94506196	          0.30835301	         -0.75586991	         -0.27990897	          0.59187131	         -0.48029025	          0.84011407	          0.25577842	
          0.78000000	          0.65042873	         -0.17899003	          0.73817684	         -0.10357503	          0.94186072	          0.31964136	         -0.75247238	         -0.28436061	          0.59407437	         -0.49362181	          0.83036379	          0.26854076	
          0.79000000	          0.65451941	         -0.18956362	          0.73189479	         -0.09850829	          0.93842228	          0.33114912	         -0.74960020	         -0.28884123	          0.59554200	         -0.50747368	          0.82109847	          0.28190928	
          0.80000000	          0.65759241	         -0.20057365	          0.72618347	         -0.09349705	          0.93472926	          0.34284037	         -0.74754968	         -0.29334524	          0.59591782	         -0.52207087	          0.81275424	          0.29604870	
          0.81000000	          0.65941095	         -0.21201057	          0.72126882	         -0.08871322	          0.93076398	          0.35469477	         -0.74653008	         -0.29787570	          0.59494782	         -0.53760443	          0.80563240	          0.31107670	
          0.82000000	          0.65983251	         -0.22385244	          0.71729432	         -0.08431659	          0.92650828	          0.36670577	         -0.74666711	         -0.30244420	          0.59246581	         -0.55423578	          0.79991134	          0.32707186	
